<?xml version="1.0" encoding="UTF-8"?>
<svg version="1.1" xmlns="http://www.w3.org/2000/svg" width="500" height="500">
<path d="M0 0 C23.91225497 21.42349707 38.41276932 48.44796324 44.08984375 80.05078125 C44.2494458 80.93540039 44.40904785 81.82001953 44.57348633 82.73144531 C45.98952773 91.37312921 46.25503379 99.60901196 46.77734375 108.48828125 C20.37734375 108.48828125 -6.02265625 108.48828125 -33.22265625 108.48828125 C-34.21265625 102.54828125 -35.20265625 96.60828125 -36.22265625 90.48828125 C-39.0676919 82.19026062 -42.40640287 76.00801236 -48.22265625 69.48828125 C-49.04056641 68.53115234 -49.04056641 68.53115234 -49.875 67.5546875 C-57.52777401 59.18165241 -68.29184839 55.45452087 -79.4140625 54.5234375 C-88.22007125 54.4132093 -96.53758759 56.19033544 -104.22265625 60.48828125 C-104.96 60.89820313 -105.69734375 61.308125 -106.45703125 61.73046875 C-120.15263164 70.08950761 -128.317296 84.21985002 -132.22265625 99.48828125 C-132.51959044 101.74683075 -132.75498158 104.01418433 -132.93359375 106.28515625 C-133.04155273 107.56414795 -133.14951172 108.84313965 -133.26074219 110.16088867 C-133.3423761 111.15963516 -133.3423761 111.15963516 -133.42565918 112.17855835 C-136.83667396 153.02661026 -150.24705454 191.45679784 -182.12109375 218.9921875 C-207.30829253 239.72154506 -240.80195895 246.96961176 -272.81054688 244.27001953 C-306.28628611 240.62661945 -336.91099619 225.98844023 -359.09375 200.17578125 C-384.4086227 168.21865755 -394.53158974 129.81327848 -390.93847656 89.28271484 C-387.58595253 61.65809661 -377.20173628 36.6840657 -359.22265625 15.48828125 C-358.49820313 14.53695312 -357.77375 13.585625 -357.02734375 12.60546875 C-356.43179688 11.90679687 -355.83625 11.208125 -355.22265625 10.48828125 C-354.56265625 10.48828125 -353.90265625 10.48828125 -353.22265625 10.48828125 C-352.89265625 9.49828125 -352.56265625 8.50828125 -352.22265625 7.48828125 C-348.75879764 4.24444995 -344.97493682 1.38998008 -341.22265625 -1.51171875 C-340.43375 -2.12660156 -339.64484375 -2.74148437 -338.83203125 -3.375 C-317.06606213 -19.47737511 -290.8173172 -25.5572074 -264.22265625 -26.51171875 C-261.2551569 -22.37859361 -260.84406097 -19.44348819 -260.83447266 -14.39819336 C-260.82658722 -13.3533503 -260.82658722 -13.3533503 -260.81854248 -12.28739929 C-260.80539052 -9.99605569 -260.81406201 -7.70541257 -260.82421875 -5.4140625 C-260.82219685 -3.81653206 -260.81928444 -2.21900251 -260.81552124 -0.62147522 C-260.81110461 2.72159642 -260.81750834 6.06442713 -260.83154297 9.4074707 C-260.84864853 13.69047972 -260.83878112 17.9729253 -260.82082558 22.25591373 C-260.80998159 25.55277243 -260.81343662 28.84949767 -260.82120895 32.1463604 C-260.82320855 33.72560124 -260.82076012 35.30485425 -260.81377029 36.88408089 C-260.80614392 39.09109709 -260.8177748 41.297202 -260.83447266 43.50415039 C-260.83685944 44.75925919 -260.83924622 46.01436798 -260.84170532 47.30751038 C-261.24834328 50.7027565 -261.84533146 52.08334625 -264.22265625 54.48828125 C-266.08862305 55.24609375 -266.08862305 55.24609375 -268.171875 55.61328125 C-268.93822266 55.7628125 -269.70457031 55.91234375 -270.49414062 56.06640625 C-271.69006836 56.27523437 -271.69006836 56.27523437 -272.91015625 56.48828125 C-285.23963829 58.69471714 -294.15725814 63.8028516 -302.05078125 73.8046875 C-311.48303748 88.26271662 -312.6855496 107.1134417 -309.52734375 123.79296875 C-306.25119447 136.3744832 -299.44733539 147.00516182 -288.5390625 154.27734375 C-275.60088703 161.40475113 -259.7006628 163.5469808 -245.37890625 159.73046875 C-231.22209243 154.53089824 -223.300249 145.29739631 -216.703125 132.1484375 C-213.36666895 123.89973217 -212.88162654 115.8054128 -212.41015625 106.98828125 C-209.77284517 66.37424707 -196.32016014 28.05239832 -165.22265625 0.48828125 C-120.04132716 -37.22970218 -45.08416881 -38.48648557 0 0 Z " fill="#000000" transform="translate(425.22265625,148.51171875)"/>
</svg>
